<svg width="35" height="35" viewBox="0 0 35 35" fill="none" xmlns="http://www.w3.org/2000/svg">
    <path d="M17.6078 34.9468C8.22605 34.9468 0.621094 27.3419 0.621094 17.9601C0.621094 8.57834 8.22605 0.973389 17.6078 0.973389C26.9896 0.973389 34.5945 8.57834 34.5945 17.9601C34.5945 27.3419 26.9896 34.9468 17.6078 34.9468ZM13.7179 30.9838C12.042 27.429 11.0711 23.5831 10.859 19.6588H4.12375C4.45429 22.2729 5.53692 24.7347 7.24009 26.7451C8.94325 28.7556 11.1937 30.2281 13.7179 30.9838ZM14.2614 19.6588C14.5179 23.8018 15.7019 27.6935 17.6078 31.1282C19.5652 27.6027 20.7086 23.6837 20.9542 19.6588H14.2614ZM31.0919 19.6588H24.3566C24.1445 23.5831 23.1737 27.429 21.4978 30.9838C24.022 30.2281 26.2724 28.7556 27.9755 26.7451C29.6787 24.7347 30.7613 22.2729 31.0919 19.6588ZM4.12375 16.2614H10.859C11.0711 12.3371 12.042 8.49118 13.7179 4.93639C11.1937 5.69209 8.94325 7.16463 7.24009 9.17508C5.53692 11.1855 4.45429 13.6474 4.12375 16.2614ZM14.2631 16.2614H20.9525C20.7075 12.2366 19.5646 8.31765 17.6078 4.792C15.6504 8.31751 14.507 12.2365 14.2614 16.2614H14.2631ZM21.4978 4.93639C23.1737 8.49118 24.1445 12.3371 24.3566 16.2614H31.0919C30.7613 13.6474 29.6787 11.1855 27.9755 9.17508C26.2724 7.16463 24.022 5.69209 21.4978 4.93639Z" fill="#EAEAEA"/>
</svg>
