<svg width="100" height="50" viewBox="0 0 100 50" fill="none" xmlns="http://www.w3.org/2000/svg">
    <path fill-rule="evenodd" clip-rule="evenodd" d="M70.2062 10.6254C67.6289 10.6254 65.4639 12.7587 65.4639 15.2984C65.4639 17.8381 67.6289 19.9714 70.2062 19.9714C72.7835 19.9714 74.9484 17.8381 74.9484 15.2984C74.9484 12.7587 72.7835 10.6254 70.2062 10.6254ZM63.8144 15.2984C63.8144 11.8444 66.701 9 70.2062 9C73.7113 9 76.5979 11.8444 76.5979 15.2984C76.5979 18.7524 73.7113 21.5968 70.2062 21.5968C66.701 21.5968 63.8144 18.7524 63.8144 15.2984ZM41.8557 12.9619V40.1873H43.5052V30.1302H46.1856C54.0206 30.1302 57.4227 35.9206 57.4227 40.0857H59.0722C59.0722 35.1079 55.0515 28.5048 46.1856 28.5048H43.5052V12.9619H41.8557ZM0 40.1873V21.5968C0 20.2762 0.412371 18.5492 1.4433 17.127C2.57732 15.7048 4.3299 14.5873 7.1134 14.5873C10.9278 14.5873 14.9485 16.4159 18.3505 19.0571C21.7526 16.3143 25.7732 14.5873 29.5876 14.5873C32.268 14.5873 34.1237 15.6032 35.2577 17.127C36.3918 18.5492 36.701 20.2762 36.701 21.5968V40.2889H35.0515V21.5968C35.0515 20.4794 34.7423 19.1587 33.9175 18.0413C33.0928 17.0254 31.8557 16.2127 29.5876 16.2127C26.3918 16.2127 22.7835 17.7365 19.5876 20.1746C19.6907 20.2762 19.7938 20.3778 19.7938 20.3778C23.4021 23.8317 26.0825 28.4032 26.0825 33.0762C26.0825 34.3968 25.6701 36.327 24.5361 37.9524C23.299 39.6794 21.3402 41 18.2474 41H17.3196C14.7423 40.7968 12.9897 39.5778 11.9588 38.054C10.8247 36.4286 10.4124 34.4984 10.4124 33.1778C10.4124 28.5048 13.0928 23.9333 16.701 20.4794C16.8041 20.3778 16.9072 20.2762 16.9072 20.2762C13.8144 17.8381 10.2062 16.3143 6.90722 16.3143C4.63917 16.3143 3.40206 17.127 2.57732 18.1429C1.75258 19.1587 1.4433 20.581 1.4433 21.6984V40.3905H0V40.1873ZM18.3505 41H17.4227C17.732 41 18.0412 41 18.3505 41ZM18.3505 21.1905C18.4536 21.2921 18.5567 21.3937 18.7629 21.4952C22.1649 24.746 24.5361 29.0127 24.5361 33.0762C24.5361 34.0921 24.2268 35.7175 23.299 37.0381C22.3711 38.2571 20.9278 39.3746 18.3505 39.3746C15.8763 39.3746 14.3299 38.3587 13.4021 37.0381C12.4742 35.7175 12.1649 34.0921 12.1649 33.0762C12.1649 29.0127 14.5361 24.746 17.9381 21.4952C18.0412 21.4952 18.1443 21.3937 18.3505 21.1905ZM69.4845 40.1873V28.6063H71.134V40.2889H69.4845V40.1873ZM78.3505 25.1524V40.2889H80V25.1524C80 20.1746 84.1237 16.1111 89.1753 16.1111C94.2268 16.1111 98.3505 20.1746 98.3505 25.1524V40.2889H100V25.1524V25.0508C99.8969 19.2603 95.1546 14.4857 89.1753 14.4857C83.1959 14.4857 78.4536 19.1587 78.3505 25.1524ZM49.5876 19.3619C49.5876 16.8222 51.7526 14.6889 54.3299 14.6889C56.9072 14.6889 59.0722 16.8222 59.0722 19.3619C59.0722 21.9016 56.9072 24.0349 54.3299 24.0349C51.7526 24.0349 49.5876 21.9016 49.5876 19.3619ZM54.3299 13.0635C50.8247 13.0635 47.9381 15.9079 47.9381 19.3619C47.9381 22.8159 50.8247 25.6603 54.3299 25.6603C57.835 25.6603 60.7216 22.8159 60.7216 19.3619C60.7216 15.9079 57.835 13.0635 54.3299 13.0635Z" fill="#404040"/>
</svg>
