<svg width="28" height="28" viewBox="0 0 28 28" fill="none" xmlns="http://www.w3.org/2000/svg">
    <path d="M16.7501 8.62501C16.1167 8.62491 15.5086 8.87345 15.0567 9.31715C14.6047 9.76086 14.345 10.3643 14.3334 10.9975L14.3101 12.31C14.3087 12.3805 14.2925 12.4499 14.2624 12.5136C14.2323 12.5774 14.1891 12.634 14.1356 12.6799C14.0821 12.7258 14.0195 12.7598 13.9519 12.7798C13.8843 12.7998 13.8133 12.8053 13.7434 12.7958L12.4426 12.6192C10.7309 12.3858 9.09093 11.5975 7.5176 10.2867C7.01926 13.045 7.9926 14.9558 10.3368 16.43L11.7926 17.345C11.8618 17.3885 11.9192 17.4482 11.96 17.5191C12.0007 17.5899 12.0235 17.6696 12.0263 17.7512C12.0291 17.8329 12.0118 17.914 11.976 17.9874C11.9402 18.0609 11.887 18.1244 11.8209 18.1725L10.4943 19.1417C11.2834 19.1908 12.0326 19.1558 12.6543 19.0325C16.5859 18.2475 19.2001 15.2892 19.2001 10.4092C19.2001 10.0108 18.3568 8.62501 16.7501 8.62501ZM12.6668 10.9667C12.6813 10.1634 12.9325 9.38224 13.3889 8.72103C13.8453 8.05983 14.4866 7.54795 15.2325 7.24949C15.9785 6.95103 16.7959 6.87925 17.5824 7.04314C18.3689 7.20703 19.0896 7.5993 19.6543 8.17085C20.2468 8.16668 20.7509 8.31668 21.8784 7.63335C21.5993 9.00001 21.4618 9.59335 20.8668 10.4092C20.8668 16.7775 16.9526 19.8742 12.9809 20.6667C10.2576 21.21 6.2976 20.3175 5.1626 19.1325C5.74093 19.0875 8.09093 18.835 9.44926 17.8408C8.3001 17.0833 3.72593 14.3917 6.73176 7.15501C8.1426 8.80251 9.57343 9.92418 11.0234 10.5192C11.9884 10.915 12.2251 10.9067 12.6676 10.9675L12.6668 10.9667Z" fill="#404040"/>
    <rect x="0.5" y="0.5" width="27" height="27" rx="13.5" stroke="#212121"/>
</svg>
