<svg width="28" height="28" viewBox="0 0 28 28" fill="none" xmlns="http://www.w3.org/2000/svg">
    <path d="M20.3384 9.82921C20.2751 9.58087 20.0951 9.39337 19.8892 9.33587C19.5251 9.23337 17.7501 9.00004 14.0001 9.00004C10.2501 9.00004 8.47675 9.23337 8.10925 9.33587C7.90591 9.39254 7.72591 9.58004 7.66175 9.82921C7.57091 10.1825 7.33341 11.6634 7.33341 14C7.33341 16.3367 7.57091 17.8167 7.66175 18.1717C7.72508 18.4192 7.90508 18.6067 8.11008 18.6634C8.47675 18.7667 10.2501 19 14.0001 19C17.7501 19 19.5242 18.7667 19.8909 18.6642C20.0942 18.6075 20.2742 18.42 20.3384 18.1709C20.4292 17.8175 20.6667 16.3334 20.6667 14C20.6667 11.6667 20.4292 10.1834 20.3384 9.82921ZM21.9526 9.41504C22.3334 10.9 22.3334 14 22.3334 14C22.3334 14 22.3334 17.1 21.9526 18.585C21.7409 19.4059 21.1217 20.0517 20.3376 20.27C18.9134 20.6667 14.0001 20.6667 14.0001 20.6667C14.0001 20.6667 9.08925 20.6667 7.66258 20.27C6.87508 20.0484 6.25675 19.4034 6.04758 18.585C5.66675 17.1 5.66675 14 5.66675 14C5.66675 14 5.66675 10.9 6.04758 9.41504C6.25925 8.59421 6.87841 7.94837 7.66258 7.73004C9.08925 7.33337 14.0001 7.33337 14.0001 7.33337C14.0001 7.33337 18.9134 7.33337 20.3376 7.73004C21.1251 7.95171 21.7434 8.59671 21.9526 9.41504ZM12.3334 16.9167V11.0834L17.3334 14L12.3334 16.9167Z" fill="#404040"/>
    <rect x="0.5" y="0.5" width="27" height="27" rx="13.5" stroke="#212121"/>
</svg>
