<svg width="181" height="52" viewBox="0 0 181 52" fill="none" xmlns="http://www.w3.org/2000/svg">
<path d="M9.52335 28V40.7157C9.52335 42.2247 9.90428 43.3786 10.6661 44.1775C11.4492 44.9542 12.5708 45.3426 14.031 45.3426C15.4912 45.3426 16.6129 44.9542 17.3959 44.1775C18.1789 43.3786 18.5704 42.2247 18.5704 40.7157V28H26.062V41.1151C26.062 44.7101 24.9721 47.4286 22.7924 49.2705C20.6338 51.0902 17.7133 52 14.031 52C10.3487 52 7.41766 51.0902 5.2379 49.2705C3.0793 47.4286 2 44.7101 2 41.1151V28H9.52335Z" fill="white"/>
<path d="M30.8812 51.301V28H38.3728V33.792L46.404 28H56.2447L45.6422 35.7226L57.2288 51.301H48.2135L39.8013 39.9501L38.3728 40.982V51.301H30.8812Z" fill="white"/>
<path d="M59.6803 51.301V28H72.6636C79.2452 28 82.536 30.3745 82.536 35.1234C82.536 36.7212 82.1339 38.0749 81.3297 39.1845C80.5256 40.2718 79.3828 41.0485 77.9014 41.5146L85.5834 51.301H76.8221L69.9019 42.2469H67.1719V51.301H59.6803ZM73.108 33.7254H67.1719V36.6879H73.108C73.6371 36.6879 74.0603 36.5659 74.3778 36.3218C74.6952 36.0555 74.8539 35.6893 74.8539 35.2233C74.8539 34.2247 74.272 33.7254 73.108 33.7254Z" fill="white"/>
<path d="M103.922 28L113.858 51.301H105.573L103.255 45.4757H95.7319L93.4146 51.301H85.1928L95.097 28H103.922ZM101.478 39.7503L99.5412 34.724H99.4777L97.5096 39.7503H101.478Z" fill="white"/>
<path d="M116.844 51.301V28H124.336V51.301H116.844Z" fill="white"/>
<path d="M145.67 51.301L137.226 37.9861V51.301H129.988V28H139.131L147.575 41.3481V28H154.812V51.301H145.67Z" fill="white"/>
<path d="M160.462 51.301V28H180.81V34.025H167.953V36.0888H179.476V41.8141H167.953V45.3093H181V51.301H160.462Z" fill="white"/>
<path d="M8.33499 23L0 0H8.17653L12.7085 14.3914L17.6524 0H25.5754L30.5194 14.3914L35.0196 0H43.1962L34.8612 23H26.9065L21.6139 9.03572L16.2897 23H8.33499Z" fill="white"/>
<path d="M46.3277 23V0H66.6423V5.94714H53.807V7.98429H65.3112V13.6357H53.807V17.0857H66.8324V23H46.3277Z" fill="white"/>
<path d="M72.1394 23V0H85.1014C91.6722 0 94.9576 2.34381 94.9576 7.03143C94.9576 8.60857 94.5561 9.94476 93.7533 11.04C92.9504 12.1133 91.8095 12.88 90.3305 13.34L98 23H89.253L82.3442 14.0629H79.6187V23H72.1394ZM85.5451 5.65143H79.6187V8.57571H85.5451C86.0733 8.57571 86.4958 8.45524 86.8127 8.21429C87.1297 7.95143 87.2881 7.59 87.2881 7.13C87.2881 6.14429 86.7071 5.65143 85.5451 5.65143Z" fill="white"/>
</svg>
