<svg width="96" height="50" viewBox="0 0 96 50" fill="none" xmlns="http://www.w3.org/2000/svg">
    <g clip-path="url(#clip0_5900_2507)">
        <path d="M4.21617 40.2065C5.76699 40.2065 7.01592 40.6497 7.96295 41.538C8.90999 42.4263 9.38351 43.5813 9.38351 45.003C9.38351 46.4247 8.91619 47.5877 7.98363 48.452C7.05107 49.3162 5.79387 49.7473 4.2141 49.7473H0V40.2065H4.21617ZM4.21617 41.3034H1.21998V48.6485H4.2141C5.42581 48.6485 6.37905 48.3196 7.07381 47.6599C7.76858 47.0002 8.11597 46.1079 8.11597 44.985C8.11597 43.862 7.76238 42.9878 7.0552 42.314C6.34803 41.6403 5.401 41.3034 4.21203 41.3034H4.21617Z" fill="#404040"/>
        <path d="M12.0074 49.7494V40.2086H17.6483C18.6098 40.2086 19.3645 40.4432 19.9125 40.9124C20.4584 41.3817 20.7334 42.0314 20.7334 42.8615C20.7334 43.5533 20.5183 44.1449 20.0924 44.6381C19.6644 45.1314 19.0999 45.4382 18.3989 45.5585L20.8575 49.7494H19.5031L17.0424 45.5746H13.2274V49.7494H12.0054H12.0074ZM13.2295 44.4597H17.5697C18.188 44.4597 18.6553 44.3273 18.9737 44.0626C19.2922 43.798 19.4514 43.4089 19.4514 42.8956C19.4514 42.3823 19.2922 42.0033 18.9737 41.7246C18.6553 41.4458 18.2087 41.3055 17.6318 41.3055H13.2295V44.4597Z" fill="#404040"/>
        <path d="M27.7948 50C26.3205 50 25.1047 49.5288 24.1452 48.5863C23.1858 47.6439 22.7061 46.4508 22.7061 45.005C22.7061 43.5593 23.1878 42.3561 24.1494 41.4137C25.1109 40.4712 26.3267 40 27.7948 40C29.2629 40 30.4891 40.4732 31.4568 41.4177C32.4245 42.3621 32.9105 43.5572 32.9105 45.005C32.9105 46.4528 32.4266 47.6459 31.463 48.5863C30.4974 49.5288 29.2753 50 27.7969 50H27.7948ZM27.7948 48.8851C28.899 48.8851 29.815 48.5202 30.5387 47.7882C31.2625 47.0563 31.6264 46.1299 31.6264 45.005C31.6264 43.8801 31.2645 42.9457 30.5429 42.2138C29.8212 41.4819 28.9052 41.1169 27.7928 41.1169C26.6803 41.1169 25.7725 41.4839 25.0468 42.2198C24.321 42.9537 23.9591 43.8841 23.9591 45.007C23.9591 46.1299 24.321 47.0584 25.0468 47.7903C25.7725 48.5222 26.6865 48.8871 27.7928 48.8871L27.7948 48.8851Z" fill="#404040"/>
        <path d="M35.5859 49.7494V40.2086H36.2269L42.6081 47.3392V40.2086H43.8384V49.7494H43.2139L36.8059 42.6189V49.7494H35.5859Z" fill="#404040"/>
        <path d="M45.8218 49.7494L50.6438 40.2086H51.6591L56.5349 49.7494H55.2073L53.8716 47.1827H48.4354L47.1348 49.7494H45.8238H45.8218ZM48.9937 46.0679H53.3257L51.1525 41.8409L48.9958 46.0679H48.9937Z" fill="#404040"/>
        <path d="M58.5054 49.7494V40.2086H64.1462C65.1077 40.2086 65.8625 40.4432 66.4104 40.9124C66.9563 41.3817 67.2293 42.0314 67.2293 42.8615C67.2293 43.5533 67.0163 44.1449 66.5883 44.6381C66.1602 45.1314 65.5957 45.4382 64.8948 45.5585L67.3554 49.7494H66.001L63.5404 45.5746H59.7253V49.7494H58.5054ZM59.7253 44.4597H64.0656C64.6838 44.4597 65.1512 44.3273 65.4696 44.0626C65.788 43.798 65.9472 43.4089 65.9472 42.8956C65.9472 42.3823 65.788 42.0033 65.4696 41.7246C65.1512 41.4458 64.7045 41.3055 64.1276 41.3055H59.7253V44.4597Z" fill="#404040"/>
        <path d="M70.0063 49.7494V40.1565H71.2449V49.7494H70.0063Z" fill="#404040"/>
        <path d="M75.6946 40.2065V46.3866C75.6946 47.3772 75.8869 48.0409 76.2694 48.3778C76.652 48.7147 77.4067 48.8831 78.5295 48.8831C79.6523 48.8831 80.4029 48.7147 80.7833 48.3778C81.1638 48.0409 81.3541 47.3772 81.3541 46.3866V40.2065H82.5844V46.7054C82.5844 47.8805 82.2701 48.7227 81.6394 49.234C81.0087 49.7433 79.9728 49.998 78.5295 49.998C77.0862 49.998 76.0482 49.7433 75.4196 49.234C74.7889 48.7247 74.4746 47.8805 74.4746 46.7054V40.2065H75.6946Z" fill="#404040"/>
        <path d="M85.7789 49.7494V40.2086H86.91L90.8842 46.0498L94.8854 40.2086H95.9999V49.7494H94.7882V42.3001L90.8842 47.9427L86.9803 42.3001V49.7494H85.7769H85.7789Z" fill="#404040"/>
        <path fill-rule="evenodd" clip-rule="evenodd" d="M6 0C9.2454 4.19117 8.35956 5.59616 26.4388 6.2584C27.3629 6.29316 27.7494 6.94992 27.8118 7.57741C23.0021 7.90487 19.0943 7.79328 11.3291 6.53099C15.6798 13.1736 22.2089 11.8966 29.0963 11.4942C29.968 11.4429 29.954 11.8765 30.421 12.4949C26.5978 13.4919 20.9586 13.3547 17.8562 12.5168C21.6613 17.222 25.1261 18.1569 32.8752 15.85C34.2744 15.4347 34.7335 16.3439 34.7335 16.3439C34.7335 16.3439 32.4464 18.5319 26.628 18.3471C28.0051 20.9138 38.6292 24.944 42.4544 22.9499C42.4544 22.9499 41.2303 12.8534 41.2142 12.0741C34.6751 11.8308 31.5827 8.77201 30.2962 2.74228C22.2814 1.03544 16.4328 0.407958 6 0Z" fill="#404040"/>
        <path d="M53.7488 32H41.2161C39.1626 32 37.4976 30.4871 37.4976 28.6211V15.453C37.4976 13.587 39.1626 12.0741 41.2161 12.0741C43.2697 12.0741 44.9347 13.587 44.9347 15.453V25.2422H53.7488C58.6088 25.2422 62.5629 21.6492 62.5629 17.233C62.5629 12.8168 58.6088 9.22388 53.7488 9.22388H51.1315L41.19 9.20192C39.1364 9.19826 37.4755 7.68169 37.4795 5.81569C37.4835 3.95152 39.1485 2.44409 41.198 2.44409H41.2061L51.1396 2.46422H53.7468C62.7078 2.46422 69.9999 9.0885 69.9999 17.233C69.9999 25.3775 62.7099 32 53.7468 32H53.7488Z" fill="#404040"/>
    </g>
    <defs>
        <clipPath id="clip0_5900_2507">
            <rect width="96" height="50" fill="white"/>
        </clipPath>
    </defs>
</svg>
