<svg width="28" height="28" viewBox="0 0 28 28" fill="none" xmlns="http://www.w3.org/2000/svg">
    <path d="M14.0001 11.5C13.337 11.5 12.7012 11.7634 12.2323 12.2322C11.7635 12.701 11.5001 13.3369 11.5001 14C11.5001 14.663 11.7635 15.2989 12.2323 15.7677C12.7012 16.2366 13.337 16.5 14.0001 16.5C14.6631 16.5 15.299 16.2366 15.7678 15.7677C16.2367 15.2989 16.5001 14.663 16.5001 14C16.5001 13.3369 16.2367 12.701 15.7678 12.2322C15.299 11.7634 14.6631 11.5 14.0001 11.5ZM14.0001 9.83329C15.1052 9.83329 16.165 10.2723 16.9464 11.0537C17.7278 11.8351 18.1667 12.8949 18.1667 14C18.1667 15.105 17.7278 16.1648 16.9464 16.9462C16.165 17.7276 15.1052 18.1666 14.0001 18.1666C12.895 18.1666 11.8352 17.7276 11.0538 16.9462C10.2724 16.1648 9.83341 15.105 9.83341 14C9.83341 12.8949 10.2724 11.8351 11.0538 11.0537C11.8352 10.2723 12.895 9.83329 14.0001 9.83329ZM19.4167 9.62496C19.4167 9.90123 19.307 10.1662 19.1117 10.3615C18.9163 10.5569 18.6513 10.6666 18.3751 10.6666C18.0988 10.6666 17.8339 10.5569 17.6385 10.3615C17.4432 10.1662 17.3334 9.90123 17.3334 9.62496C17.3334 9.34869 17.4432 9.08374 17.6385 8.88839C17.8339 8.69304 18.0988 8.58329 18.3751 8.58329C18.6513 8.58329 18.9163 8.69304 19.1117 8.88839C19.307 9.08374 19.4167 9.34869 19.4167 9.62496ZM14.0001 7.33329C11.9384 7.33329 11.6017 7.33913 10.6426 7.38163C9.98925 7.41246 9.55091 7.49996 9.14425 7.65829C8.78258 7.79829 8.52175 7.96579 8.24425 8.24413C7.98342 8.49613 7.78288 8.80378 7.65758 9.14413C7.49925 9.55246 7.41175 9.98996 7.38175 10.6425C7.33841 11.5625 7.33341 11.8841 7.33341 14C7.33341 16.0616 7.33925 16.3983 7.38175 17.3575C7.41258 18.01 7.50008 18.4491 7.65758 18.855C7.79925 19.2175 7.96591 19.4783 8.24258 19.755C8.52341 20.035 8.78425 20.2025 9.14258 20.3408C9.55425 20.5 9.99258 20.5883 10.6426 20.6183C11.5626 20.6616 11.8842 20.6666 14.0001 20.6666C16.0617 20.6666 16.3984 20.6608 17.3576 20.6183C18.0092 20.5875 18.4484 20.5 18.8551 20.3425C19.2159 20.2016 19.4784 20.0341 19.7551 19.7575C20.0359 19.4766 20.2034 19.2158 20.3417 18.8575C20.5001 18.4466 20.5884 18.0075 20.6184 17.3575C20.6617 16.4375 20.6667 16.1158 20.6667 14C20.6667 11.9383 20.6609 11.6016 20.6184 10.6425C20.5876 9.99079 20.5001 9.55079 20.3417 9.14413C20.2162 8.80413 20.016 8.49659 19.7559 8.24413C19.504 7.98316 19.1963 7.7826 18.8559 7.65746C18.4476 7.49913 18.0092 7.41163 17.3576 7.38163C16.4376 7.33829 16.1159 7.33329 14.0001 7.33329ZM14.0001 5.66663C16.2642 5.66663 16.5467 5.67496 17.4351 5.71663C18.3226 5.75829 18.9267 5.89746 19.4584 6.10413C20.0084 6.31579 20.4717 6.60246 20.9351 7.06496C21.3588 7.48154 21.6867 7.98545 21.8959 8.54163C22.1017 9.07246 22.2417 9.67746 22.2834 10.565C22.3226 11.4533 22.3334 11.7358 22.3334 14C22.3334 16.2641 22.3251 16.5466 22.2834 17.435C22.2417 18.3225 22.1017 18.9266 21.8959 19.4583C21.6873 20.0148 21.3593 20.5188 20.9351 20.935C20.5184 21.3586 20.0145 21.6864 19.4584 21.8958C18.9276 22.1016 18.3226 22.2416 17.4351 22.2833C16.5467 22.3225 16.2642 22.3333 14.0001 22.3333C11.7359 22.3333 11.4534 22.325 10.5651 22.2833C9.67758 22.2416 9.07341 22.1016 8.54175 21.8958C7.98535 21.687 7.48135 21.3591 7.06508 20.935C6.64125 20.5184 6.31336 20.0145 6.10425 19.4583C5.89758 18.9275 5.75841 18.3225 5.71675 17.435C5.67758 16.5466 5.66675 16.2641 5.66675 14C5.66675 11.7358 5.67508 11.4533 5.71675 10.565C5.75841 9.67663 5.89758 9.07329 6.10425 8.54163C6.31278 7.98511 6.64075 7.48106 7.06508 7.06496C7.48147 6.64099 7.98544 6.31307 8.54175 6.10413C9.07341 5.89746 9.67675 5.75829 10.5651 5.71663C11.4534 5.67746 11.7359 5.66663 14.0001 5.66663Z" fill="#404040"/>
    <rect x="0.5" y="0.5" width="27" height="27" rx="13.5" stroke="#212121"/>
</svg>
