<svg width="12" height="16" viewBox="0 0 12 16" fill="none" xmlns="http://www.w3.org/2000/svg">
    <path d="M11.376 8.41607L0.777 15.4821C0.701706 15.5322 0.61423 15.5609 0.523891 15.5652C0.433553 15.5696 0.343733 15.5493 0.263999 15.5066C0.184265 15.4639 0.117604 15.4004 0.0711136 15.3228C0.0246236 15.2452 4.67204e-05 15.1565 0 15.0661V0.934068C4.67204e-05 0.843626 0.0246236 0.75489 0.0711136 0.677311C0.117604 0.599733 0.184265 0.536216 0.263999 0.493527C0.343733 0.450839 0.433553 0.430576 0.523891 0.434897C0.61423 0.439219 0.701706 0.467963 0.777 0.518068L11.376 7.58407C11.4445 7.62973 11.5006 7.69159 11.5395 7.76416C11.5783 7.83673 11.5986 7.91776 11.5986 8.00007C11.5986 8.08237 11.5783 8.16341 11.5395 8.23598C11.5006 8.30855 11.4445 8.37041 11.376 8.41607Z" fill="#EAEAEA"/>
</svg>
